<svg width="168" height="57" viewBox="0 0 168 57" fill="none" xmlns="http://www.w3.org/2000/svg">
<path d="M70.3639 10.413H73.8909L77.4376 18.6823C77.677 19.2798 77.9157 19.938 78.1149 20.5751H78.2541V10.4124H80.5656V24.3606H77.0386L73.4919 16.0912C73.2525 15.5135 73.0138 14.8758 72.7948 14.1985H72.655V24.3612H70.3633V10.413H70.3639Z" fill="#033520"/>
<path d="M82.3799 19.3201C82.3799 15.9725 83.8347 14.0198 86.8433 14.0198C89.8519 14.0198 91.3067 15.9725 91.3067 19.3201C91.3067 22.6677 89.8519 24.5808 86.8433 24.5808C83.8347 24.5808 82.3799 22.6281 82.3799 19.3201ZM88.3773 19.3201C88.3773 16.8094 87.8992 15.8531 86.8427 15.8531C85.7862 15.8531 85.308 16.7896 85.308 19.3201C85.308 21.8506 85.806 22.7475 86.8427 22.7475C87.8794 22.7475 88.3773 21.8308 88.3773 19.3201Z" fill="#033520"/>
<path d="M92.7402 14.2385H95.4501L95.5497 15.9723H95.7093C96.0482 14.7964 96.6853 14.0591 97.8414 14.0591C98.0406 14.0591 98.2595 14.0789 98.4989 14.1191V16.5302C98.2397 16.4504 97.9212 16.4108 97.662 16.4108C96.2474 16.4108 95.6295 18.0048 95.6295 19.6786V24.361H92.8794V16.1912C92.8794 15.5535 92.8194 14.6566 92.7402 14.2385Z" fill="#033520"/>
<path d="M99.2158 14.2388H101.826L103.102 20.097C103.201 20.5158 103.281 20.9339 103.341 21.3527H103.501L103.719 20.097L104.895 14.2388H107.605L108.881 20.097C108.96 20.4954 109.06 20.9537 109.12 21.3527H109.299L109.499 20.097L110.674 14.2388H113.006L110.435 24.3613H107.526L106.251 18.2241L106.131 17.6266H105.991L105.892 18.2241L104.676 24.3613H101.807L99.2165 14.2388H99.2158Z" fill="#033520"/>
<path d="M113.723 19.26C113.723 15.8326 115.337 14.019 118.187 14.019C121.495 14.019 122.63 16.5495 122.391 19.8971H116.652C116.712 21.8894 117.21 22.7467 118.266 22.7467C119.103 22.7467 119.641 22.109 119.78 21.0334L122.311 21.6111C121.813 23.4642 120.378 24.5801 118.206 24.5801C115.356 24.5801 113.723 22.7665 113.723 19.26H113.723ZM119.621 18.4033C119.582 16.7097 119.123 15.8524 118.147 15.8524C117.17 15.8524 116.692 16.6893 116.652 18.4033H119.621Z" fill="#033520"/>
<path d="M123.745 19.0806C123.745 15.6137 125.14 14.019 127.292 14.019C128.467 14.019 129.244 14.4972 129.742 15.3941H129.922L129.961 14.2386H132.711C132.651 14.6172 132.571 15.4541 132.571 16.1518V24.222C132.571 26.7729 130.997 28.5858 127.989 28.5858C125.538 28.5858 124.142 27.3302 123.764 25.4974L126.354 24.9995C126.494 25.9558 126.893 26.7333 128.028 26.7333C129.244 26.7333 129.821 25.8964 129.821 24.402V22.967H129.642C129.144 23.7438 128.386 24.1824 127.291 24.1824C125.099 24.1824 123.744 22.5086 123.744 19.0813L123.745 19.0806ZM129.882 19.0608C129.882 16.7895 129.284 15.8524 128.188 15.8524C127.093 15.8524 126.674 16.7493 126.674 19.0404C126.674 21.3315 127.152 22.3484 128.209 22.3484C129.265 22.3484 129.883 21.3717 129.883 19.0608H129.882Z" fill="#033520"/>
<path d="M134.406 11.7083C134.406 10.8714 135.003 10.3135 135.92 10.3135C136.837 10.3135 137.475 10.8516 137.475 11.7083C137.475 12.565 136.877 13.1229 135.94 13.1229C135.003 13.1229 134.405 12.5848 134.405 11.7083H134.406ZM134.566 14.2388H137.316V24.3613H134.566V14.2388Z" fill="#033520"/>
<path d="M138.809 21.5715C138.809 19.9973 139.745 19.1802 141.2 18.6625L144.268 17.6264V17.4074C144.268 16.4308 143.79 15.913 142.953 15.913C142.117 15.913 141.539 16.3714 141.479 17.5868L138.948 17.1087C139.267 15.4349 140.542 14.1001 143.053 14.1001C145.564 14.1001 146.939 15.3755 146.939 17.4879V22.4697C146.939 23.267 147.019 23.9443 147.098 24.3624H144.568L144.488 23.1667H144.309C143.831 24.123 143.013 24.6011 141.858 24.6011C139.945 24.6011 138.809 23.3257 138.809 21.5721L138.809 21.5715ZM142.714 22.6873C143.471 22.6873 144.268 22.1492 144.268 20.5354V19.32L142.515 20.0969C141.877 20.3956 141.559 20.8144 141.559 21.4317C141.559 22.109 141.957 22.6873 142.714 22.6873Z" fill="#033520"/>
<path d="M148.691 14.2387H151.501L151.561 15.315H151.78C152.318 14.4385 153.194 14.0198 154.211 14.0198C155.944 14.0198 156.961 15.1554 156.961 17.2282V24.3619H154.211V17.7465C154.211 16.5113 153.832 15.9329 153.095 15.9329C152.139 15.9329 151.581 16.8094 151.581 18.3836V24.3612H148.831V16.1915C148.831 15.5538 148.771 14.6569 148.691 14.2387Z" fill="#033520"/>
<path d="M70.3633 31.0959H74.8267C77.9151 31.0959 79.7089 32.7097 79.7089 35.4994C79.7089 38.289 77.8755 40.003 74.7871 40.003H73.2327V45.0441H70.3633V31.0959ZM74.4884 38.0107C76.0026 38.0107 76.7597 37.1138 76.7597 35.5C76.7597 33.8862 76.0224 33.0889 74.5082 33.0889H73.2327V38.0107H74.4884Z" fill="#033520"/>
<path d="M80.7848 39.9437C80.7848 36.5163 82.3986 34.7034 85.2482 34.7034C88.5562 34.7034 89.6919 37.2338 89.4525 40.5814H83.7136C83.7736 42.5744 84.2715 43.431 85.3274 43.431C86.1643 43.431 86.7024 42.7933 86.8416 41.7177L89.3721 42.2954C88.8741 44.1486 87.4391 45.2644 85.2674 45.2644C82.4177 45.2644 80.7842 43.4508 80.7842 39.9443L80.7848 39.9437ZM86.6833 39.0864C86.6437 37.3928 86.1854 36.5355 85.2087 36.5355C84.232 36.5355 83.7538 37.3724 83.7143 39.0864H86.6833Z" fill="#033520"/>
<path d="M90.7881 40.0029C90.7881 36.6554 92.2429 34.7026 95.2515 34.7026C98.2601 34.7026 99.7149 36.6554 99.7149 40.0029C99.7149 43.3505 98.2601 45.2637 95.2515 45.2637C92.2429 45.2637 90.7881 43.3109 90.7881 40.0029ZM96.7861 40.0029C96.7861 37.4923 96.308 36.536 95.2515 36.536C94.195 36.536 93.7169 37.4725 93.7169 40.0029C93.7169 42.5334 94.2148 43.4303 95.2515 43.4303C96.2882 43.4303 96.7861 42.5136 96.7861 40.0029Z" fill="#033520"/>
<path d="M101.168 34.9216H103.918L103.938 36.137H104.137C104.635 35.2203 105.432 34.7026 106.588 34.7026C108.78 34.7026 110.115 36.4562 110.115 40.0227C110.115 43.5893 108.74 45.263 106.568 45.263C105.472 45.263 104.715 44.8245 104.217 44.0278H104.037V49.0294H101.287V36.8341C101.287 36.137 101.227 35.2995 101.168 34.921V34.9216ZM107.186 40.0432C107.186 37.5721 106.727 36.536 105.672 36.536C104.616 36.536 103.998 37.5919 103.998 40.0234C103.998 42.4549 104.576 43.431 105.672 43.431C106.768 43.431 107.186 42.4747 107.186 40.0432Z" fill="#033520"/>
<path d="M111.65 42.4939V31.0959H114.4V42.0751C114.4 42.8322 114.48 43.2108 115.138 43.2108C115.337 43.2108 115.616 43.1712 115.955 43.0914V44.9841C115.357 45.1035 114.739 45.1833 114.201 45.1833C112.348 45.1833 111.65 44.4064 111.65 42.4932V42.4939Z" fill="#033520"/>
<path d="M116.89 39.9437C116.89 36.5163 118.504 34.7034 121.354 34.7034C124.662 34.7034 125.797 37.2338 125.558 40.5814H119.819C119.879 42.5744 120.377 43.431 121.433 43.431C122.27 43.431 122.808 42.7933 122.947 41.7177L125.478 42.2954C124.98 44.1486 123.545 45.2644 121.373 45.2644C118.523 45.2644 116.89 43.4508 116.89 39.9443L116.89 39.9437ZM122.789 39.0864C122.749 37.3928 122.291 36.5355 121.314 36.5355C120.337 36.5355 119.859 37.3724 119.82 39.0864H122.789Z" fill="#033520"/>
<path d="M127.252 34.0848C126.454 34.005 125.937 33.4075 125.937 32.5502C125.937 31.5939 126.574 30.9562 127.591 30.9562C128.607 30.9562 129.165 31.5537 129.165 32.5502C129.165 32.9485 129.065 33.4068 128.786 33.9846L127.531 36.5355H126.395L127.252 34.0848Z" fill="#033520"/>
<path d="M128.767 42.3145L131.277 41.7961C131.397 42.9516 132.034 43.5893 132.971 43.5893C133.728 43.5893 134.286 43.2107 134.286 42.513C134.286 40.5003 129.145 41.3569 129.145 37.8102C129.145 35.8575 130.68 34.702 132.911 34.702C134.944 34.702 136.319 35.6385 136.758 37.2325L134.347 37.89C134.167 36.8137 133.649 36.3758 132.892 36.3758C132.195 36.3758 131.736 36.7544 131.736 37.3723C131.736 39.3052 136.917 38.4281 136.917 42.0751C136.917 44.0674 135.383 45.2631 132.932 45.2631C130.481 45.2631 129.186 44.0872 128.767 42.3138L128.767 42.3145Z" fill="#033520"/>
<path d="M145.802 31.0959H149.011L153.195 45.0441H150.146L149.389 42.2347H144.886L144.109 45.0441H141.499L145.803 31.0959H145.802ZM148.851 40.2424L147.576 35.5L147.277 34.2648H147.097L146.778 35.5L145.443 40.2424H148.851Z" fill="#033520"/>
<path d="M154.531 32.3912C154.531 31.5543 155.128 30.9963 156.045 30.9963C156.962 30.9963 157.6 31.5345 157.6 32.3912C157.6 33.2478 157.002 33.8058 156.065 33.8058C155.128 33.8058 154.53 33.2676 154.53 32.3912H154.531ZM154.69 34.9216H157.441V45.0441H154.69V34.9216Z" fill="#033520"/>
<path d="M164.931 35.9379H165.13V31.0959H167.859V43.1316C167.859 43.8293 167.939 44.6662 167.999 45.0448H165.249L165.229 43.8293H165.03C164.532 44.746 163.734 45.2637 162.579 45.2637C160.367 45.2637 159.032 43.5102 159.032 39.9634C159.032 36.4167 160.427 34.7027 162.579 34.7027C163.675 34.7027 164.432 35.1412 164.93 35.9379H164.931ZM161.962 39.9232C161.962 42.4141 162.42 43.4304 163.476 43.4304C164.532 43.4304 165.169 42.3745 165.169 39.943C165.169 37.5115 164.572 36.5354 163.476 36.5354C162.38 36.5354 161.962 37.4917 161.962 39.9232Z" fill="#033520"/>
<path d="M28.0974 0.360107C12.6407 0.360107 0.110352 12.8905 0.110352 28.3471C0.110352 43.8038 12.6407 56.3335 28.0974 56.3335C43.554 56.3335 56.0838 43.8038 56.0838 28.3471C56.0838 12.8905 43.554 0.360107 28.0974 0.360107ZM28.0974 54.6521C13.5689 54.6521 1.7918 42.875 1.7918 28.3471C1.7918 13.8193 13.5689 2.04219 28.0974 2.04219C42.6259 2.04219 54.4023 13.8193 54.4023 28.3471C54.4023 42.875 42.6252 54.6521 28.0974 54.6521Z" fill="#01AB4D"/>
<path d="M54.4025 28.3472C54.4025 42.875 42.6254 54.6522 28.0976 54.6522C13.5698 54.6522 1.79199 42.875 1.79199 28.3472C1.79199 13.8194 13.5691 2.04224 28.0976 2.04224C42.6261 2.04224 54.4025 13.8194 54.4025 28.3472Z" fill="white"/>
<path d="M32.8978 24.0441V15.55H23.2987V24.0441H14.8047V33.6399H23.2987V42.1346H32.8978V33.6399H41.3892V24.0441H32.8978Z" fill="#01AB4D"/>
<path d="M32.6424 15.8054V24.2994H41.1339V33.3852H32.6424V41.8793H23.5541V33.3852H15.06V24.2994H23.5541V15.8054H32.6424ZM32.8978 15.55H23.2987V24.0441H14.8047V33.6406H23.2987V42.1346H32.8978V33.6406H41.3892V24.0441H32.8978V15.55Z" fill="#033520"/>
<path d="M11.3791 41.0985L10.5039 43.3002L12.1164 42.0394L12.4879 42.5163L10.1451 44.3516L9.77485 43.8824L10.673 41.6615L9.04009 42.9421L8.66602 42.4652L11.0101 40.6287L11.3791 41.0991V41.0985Z" fill="#033520"/>
<path d="M11.9235 45.5434C11.7824 45.4048 11.6828 45.2306 11.6726 45.0206C11.6573 44.7563 11.8124 44.4569 12.0327 44.2207C12.2606 43.9928 12.5542 43.8262 12.8185 43.8313C13.0272 43.839 13.2079 43.9315 13.3477 44.0649C13.4875 44.2009 13.5871 44.3777 13.5979 44.5877C13.6132 44.8495 13.4594 45.1514 13.2379 45.3851C13.0113 45.6155 12.7176 45.7796 12.4521 45.7745C12.2433 45.7694 12.0627 45.6768 11.9241 45.544L11.9235 45.5434ZM13.656 45.7891C13.9688 45.4661 14.1635 45.0308 14.1673 44.6305C14.1686 44.2743 13.9892 43.9411 13.7173 43.6794C13.4479 43.4176 13.1096 43.251 12.7534 43.2644C12.3538 43.2823 11.9254 43.4949 11.6126 43.8153C11.2998 44.1409 11.1051 44.5769 11.1026 44.9765C11.1 45.3327 11.2794 45.6634 11.5513 45.9277C11.8214 46.1868 12.1616 46.356 12.5165 46.3407C12.9162 46.3228 13.3445 46.1128 13.656 45.7898V45.7891Z" fill="#033520"/>
<path d="M15.1511 45.6607L15.8138 46.1452C16.034 46.3016 16.0391 46.4606 15.9153 46.6298C15.7704 46.8883 15.4754 46.8628 15.3618 46.7785L14.6915 46.2914L15.1518 45.6607H15.1511ZM13.2073 47.2988L13.6982 47.655L14.3915 46.7038L14.9654 47.1219C15.1345 47.2477 15.1958 47.4117 15.0848 47.5784C14.9501 47.7475 14.8115 47.9397 14.7311 48.0629C14.68 48.1471 14.6456 48.2346 14.6322 48.3367L15.1575 48.721L15.2239 48.6285C15.1958 48.557 15.178 48.5002 15.275 48.3642C15.3624 48.2384 15.5852 47.918 15.6452 47.8082C15.7774 47.5726 15.6644 47.3983 15.6235 47.2828C15.854 47.3032 16.0129 47.3058 16.2229 47.1392C16.433 46.9751 16.5102 46.7651 16.5536 46.6393C16.6743 46.3265 16.5153 46.0393 16.2842 45.8548L14.959 44.8883L13.2061 47.2975L13.2073 47.2988Z" fill="#033520"/>
<path d="M18.1702 48.0444C18.2922 47.8369 18.2264 47.5471 17.8626 47.3396C17.6059 47.1934 17.3653 47.1781 17.2293 47.383C17.1176 47.5548 17.1578 47.6263 17.2497 47.7341C17.2753 47.8318 17.7215 48.1804 17.8109 48.2519C17.9392 48.3546 18.2079 48.5876 18.28 48.8443C18.4033 49.3237 17.9264 49.8669 17.4878 49.9001C17.1891 49.9231 16.8674 49.7954 16.5782 49.6416C16.446 49.5752 16.1607 49.3569 16.0451 49.1111C15.9066 48.8162 15.9347 48.4957 16.0515 48.2372L16.5705 48.5244C16.5322 48.5908 16.4939 48.7115 16.5322 48.85C16.582 49.037 16.7524 49.1832 16.9344 49.27C17.1125 49.3645 17.3085 49.406 17.4112 49.3754C17.5842 49.332 17.7215 49.1398 17.664 48.9394C17.5925 48.6674 17.0812 48.3885 16.8105 48.0935C16.5839 47.8427 16.4633 47.5094 16.7403 47.1117C17.0097 46.7172 17.4757 46.5736 18.1064 46.9221C18.2462 46.9968 18.7231 47.2681 18.7984 47.7297C18.8367 47.9812 18.7384 48.2423 18.6701 48.317L18.1702 48.045V48.0444Z" fill="#033520"/>
<path d="M19.4596 47.6907L20.0233 47.9109L19.5477 49.1283L21.1008 48.3335L21.7698 48.5952L20.2142 49.3721L20.7983 51.4098L20.1152 51.1461L19.7016 49.593L19.2866 49.7979L18.9406 50.6846L18.377 50.4669L19.4596 47.6913V47.6907Z" fill="#033520"/>
<path d="M25.1272 49.3467L25.0282 49.8491L23.5925 49.5644L23.4591 50.2283L24.725 50.4798L24.6254 50.9822L23.3602 50.7314L23.1106 51.9845L22.5156 51.8689L23.0946 48.9446L25.1259 49.3467H25.1272Z" fill="#033520"/>
<path d="M26.4949 52.0073C26.3027 51.9946 26.1118 51.9256 25.9682 51.7743C25.7876 51.5796 25.7103 51.2515 25.7301 50.9311C25.7544 50.6081 25.875 50.2927 26.0799 50.1261C26.244 49.9927 26.44 49.9493 26.6334 49.962C26.8281 49.9774 27.0177 50.0469 27.1613 50.2008C27.342 50.3929 27.4173 50.7185 27.3994 51.0441C27.3739 51.3671 27.2558 51.6824 27.0496 51.8465C26.8868 51.9773 26.6896 52.0233 26.4949 52.008V52.0073ZM27.979 51.0817C28.0097 50.6329 27.8795 50.1746 27.6254 49.8669C27.3975 49.5924 27.0464 49.4539 26.6691 49.4284C26.2951 49.4054 25.9274 49.4922 25.6643 49.7335C25.3694 50.0054 25.1786 50.4408 25.1479 50.8896C25.1173 51.3377 25.2494 51.7967 25.5028 52.1069C25.7333 52.3789 26.085 52.5168 26.4591 52.5429C26.8357 52.5685 27.2022 52.4791 27.4639 52.2403C27.7588 51.9684 27.951 51.5305 27.979 51.0817Z" fill="#033520"/>
<path d="M29.0254 49.5056L29.1728 51.9716L30.5798 51.8867L30.6104 52.3942L28.5983 52.5149L28.4189 49.5414L29.0254 49.5056Z" fill="#033520"/>
<path d="M30.7441 49.3875L31.3404 49.2796L31.5798 50.564L32.4779 49.067L33.184 48.9362L32.2717 50.4178L33.8427 51.8452L33.124 51.976L31.9513 50.8761L31.7106 51.2706L31.8836 52.2065L31.2874 52.3163L30.7441 49.3868V49.3875Z" fill="#033520"/>
<path d="M35.5355 48.1777L35.6919 48.6648L34.237 49.134L34.4471 49.78L35.7889 49.344L35.9466 49.8285L34.6035 50.2645L34.8416 50.9974L36.3602 50.5026L36.5179 50.9897L34.4215 51.6689L33.5029 48.834L35.5355 48.1777Z" fill="#033520"/>
<path d="M35.9004 48.0393L36.4475 47.7775L36.9282 48.79L37.9853 48.2876L37.502 47.2726L38.0504 47.0134L39.3297 49.7048L38.7826 49.9607L38.2036 48.7459L37.149 49.2483L37.7274 50.4657L37.1803 50.7274L35.901 48.0386L35.9004 48.0393Z" fill="#033520"/>
<path d="M39.8284 45.8996L41.0381 47.8191C41.1281 47.973 41.1766 48.1549 41.1408 48.37C41.1012 48.619 40.9334 48.8213 40.7361 48.9592C40.5414 49.1003 40.3212 49.182 40.1673 49.1929C39.8367 49.2107 39.5839 48.9956 39.4294 48.7728L39.25 48.4856L39.7639 48.16L39.9241 48.4185C39.9828 48.5111 40.1277 48.762 40.4112 48.5545C40.6084 48.4058 40.5765 48.2238 40.5012 48.1032L39.317 46.2219L39.8296 45.8989L39.8284 45.8996Z" fill="#033520"/>
<path d="M41.8901 44.2973L42.2093 44.6943L41.0162 45.648L41.4407 46.1785L42.5425 45.2995L42.8604 45.694L41.758 46.5781L42.2399 47.1756L43.486 46.1785L43.8065 46.5781L42.0842 47.9544L40.2246 45.6321L41.8907 44.2966L41.8901 44.2973Z" fill="#033520"/>
<path d="M42.6331 43.5618L44.3899 45.2969L45.3794 44.2921L45.7445 44.6483L44.3273 46.0884L42.2061 43.9972L42.6331 43.5612V43.5618Z" fill="#033520"/>
<path d="M44.5995 42.1614L44.9991 41.6449C45.0917 41.5281 45.2181 41.417 45.4153 41.4834C45.5513 41.5281 45.6802 41.673 45.7281 41.7554C45.7792 41.8492 45.8398 42.0222 45.723 42.1716L45.3055 42.7084L44.5995 42.1614ZM46.1743 44.1511L46.5484 43.6743L45.7077 43.0206L46.1539 42.4518C46.3831 42.1927 46.4501 41.8556 46.2497 41.4598C46.1405 41.2549 45.8277 40.9766 45.5411 40.9025C45.0349 40.7666 44.7565 41.124 44.6282 41.2906L43.8232 42.3273L46.1737 44.1511H46.1743Z" fill="#033520"/>
<path d="M13.0641 38.4556L13.0622 38.4524V38.4511C13.0584 38.4441 13.0488 38.4249 13.0335 38.3949C12.4328 37.2133 11.9942 36.31 11.781 35.821L10.1807 36.5437L10.2445 36.6969L10.2554 36.723C10.3377 36.9248 10.4232 37.1329 10.5113 37.3186L10.5669 37.4361L10.505 37.5504L10.2841 37.9551C10.2815 37.9602 10.2802 37.9634 10.2796 37.9659C10.2796 37.9679 10.2809 37.9704 10.2828 37.9742L10.8382 39.1533L12.7137 39.595L12.8037 39.611C12.8535 39.6001 12.8828 39.5318 12.8911 39.4642C12.9039 39.3627 12.8694 39.2561 12.8075 39.2037L12.7788 39.1795L12.6218 39.1431C12.3422 39.078 11.8091 38.9567 11.5474 38.8979C11.4663 38.8794 11.3967 38.8271 11.3559 38.7543C11.315 38.6815 11.3074 38.5941 11.3348 38.5156L11.6795 37.5121L11.864 36.9739L12.1436 37.4693L12.7858 38.61L12.7871 38.6126L12.7884 38.6158C12.8082 38.6528 12.8324 38.686 12.8599 38.7135L12.902 38.7556L12.9614 38.753C13.0067 38.7511 13.0456 38.7269 13.0724 38.6835C13.1101 38.6228 13.1069 38.5405 13.0641 38.4556Z" fill="#01AB4D"/>
<path d="M49.6503 21.8652C47.732 21.8652 46.1699 23.4286 46.1699 25.3488C46.1699 27.269 47.732 28.8291 49.6503 28.8291C51.5685 28.8291 53.1338 27.2683 53.1338 25.3488C53.1338 23.4292 51.5705 21.8652 49.6503 21.8652Z" fill="#01AB4D"/>
<path d="M49.6503 22.1206C51.43 22.1206 52.8785 23.5684 52.8785 25.3488C52.8785 27.1292 51.4307 28.5738 49.6503 28.5738C47.8699 28.5738 46.4253 27.1266 46.4253 25.3488C46.4253 23.5709 47.8724 22.1206 49.6503 22.1206ZM49.6503 21.8652C47.732 21.8652 46.1699 23.4286 46.1699 25.3488C46.1699 27.269 47.732 28.8291 49.6503 28.8291C51.5685 28.8291 53.1338 27.2683 53.1338 25.3488C53.1338 23.4292 51.5705 21.8652 49.6503 21.8652Z" fill="#033520"/>
<path d="M6.54183 21.8652C4.62228 21.8652 3.05957 23.4286 3.05957 25.3488C3.05957 27.269 4.62164 28.8291 6.54183 28.8291C8.46202 28.8291 10.0241 27.2683 10.0241 25.3488C10.0241 23.4292 8.46202 21.8652 6.54183 21.8652Z" fill="#01AB4D"/>
<path d="M6.54183 22.1206C8.32095 22.1206 9.76875 23.5684 9.76875 25.3488C9.76875 27.1292 8.32158 28.5738 6.54183 28.5738C4.76208 28.5738 3.31491 27.1266 3.31491 25.3488C3.31491 23.5709 4.76208 22.1206 6.54183 22.1206ZM6.54183 21.8652C4.62228 21.8652 3.05957 23.4286 3.05957 25.3488C3.05957 27.269 4.62164 28.8291 6.54183 28.8291C8.46202 28.8291 10.0241 27.2683 10.0241 25.3488C10.0241 23.4292 8.46202 21.8652 6.54183 21.8652Z" fill="#033520"/>
<path d="M48.6205 29.3531C48.5356 32.086 47.9247 34.7447 46.8957 36.8666L45.8647 36.4358L43.3923 35.2873C44.2829 33.4616 44.7916 31.0627 44.7916 28.679C44.7916 24.5144 43.2851 20.5469 40.5459 17.4892L43.4887 15.0315C45.2666 16.9983 46.4865 19.0979 47.4287 21.8096C45.7071 23.0244 45.4868 24.3369 45.4894 25.3487C45.4906 26.2673 45.8271 27.1916 46.4367 27.9507C47.0227 28.6797 47.7951 29.1744 48.6205 29.3531Z" fill="#01AB4D"/>
<path d="M48.7758 29.1234C47.1071 28.8215 45.7461 27.1298 45.7435 25.3482C45.741 24.3817 45.9574 23.1247 47.6554 21.9623L47.7327 21.9099L47.7014 21.8212C46.7292 18.9869 45.4614 16.8107 43.5903 14.7654L43.5125 14.678L42.6488 15.3993C42.4458 15.1803 42.1987 14.9218 41.99 14.715L42.0653 14.2579C42.0704 14.2241 42.0857 14.1181 41.9785 14.0141L40.9814 13.2116L40.0991 13.1286L40.0162 13.061C39.9447 13.0042 39.8732 12.948 39.801 12.8931L40.5071 11.919L40.4094 11.8455C37.8904 9.97578 35.058 8.72395 31.9926 8.12134L31.8656 8.09708L31.8464 8.22667C31.6134 9.90811 29.8828 11.2768 27.9888 11.2768C26.0948 11.2768 24.6629 9.6649 24.2378 8.16922L24.2084 8.06006L24.0967 8.08048C21.3109 8.59564 18.6987 9.6566 16.3317 11.2334L16.2334 11.2997L16.9464 12.4539L16.829 12.5324C16.6151 12.676 16.3827 12.8299 16.1868 12.9761L15.6614 12.8171L15.5273 12.8503L14.5519 13.7555L14.3796 14.6154C14.3362 14.655 14.2902 14.6952 14.243 14.7354C14.1861 14.7846 14.1287 14.8337 14.0751 14.8829L13.1277 13.8577L13.0384 13.9502C10.8852 16.1289 9.20884 18.7954 8.19129 21.6572L8.15555 21.7574L8.24747 21.8059C9.70995 22.6185 10.4524 23.8474 10.4524 25.456C10.4524 27.0647 9.0767 28.9313 7.10225 29.1751L6.98926 29.1879L6.99436 29.3009C7.07288 31.9941 7.65571 34.6038 8.72688 37.0589L8.77858 37.1744L9.94679 36.6459L10.0087 36.7953C10.0955 37.0078 10.1855 37.2281 10.28 37.4279L10.0598 37.8332C10.0138 37.9175 10.0113 37.9986 10.0521 38.0841L10.6598 39.3736L12.6617 39.8454L12.7894 39.8683C12.9739 39.8683 13.1175 39.717 13.1443 39.4955C13.166 39.3213 13.1099 39.1253 12.9713 39.0085C13.0997 39.0033 13.2177 38.9338 13.2892 38.8176C13.3741 38.6816 13.3754 38.5061 13.2918 38.3407C13.2822 38.3203 12.37 36.5386 12.0119 35.7113L12.7434 35.38L12.6949 35.2677C11.7923 33.184 11.3365 30.9664 11.3365 28.6791C11.3365 24.3498 12.9918 20.2515 16.001 17.1414L16.0821 17.0565L15.6154 16.5515C15.957 16.2126 16.3438 15.8564 16.7268 15.5263L16.7307 15.5225L17.6888 14.7488L18.1491 14.4003L18.5232 15.0061L18.6285 14.9346C21.3798 13.0674 24.5978 12.0817 27.9352 12.0817C31.5247 12.0817 34.922 13.2027 37.7596 15.3252L37.8591 15.3993L38.4062 14.6945C39.0835 15.2014 39.8751 15.8825 40.4585 16.4622L40.8837 16.8739L40.1764 17.4644L40.2638 17.5589C43.019 20.5834 44.5351 24.533 44.5351 28.6791C44.5351 31.0781 44.0136 33.4885 43.102 35.2957L43.0458 35.4087L43.8119 35.7643C43.5042 36.5354 42.59 38.3197 42.5805 38.3407C42.4962 38.5061 42.4987 38.6816 42.583 38.8201C42.6551 38.9338 42.7713 39.0033 42.8996 39.0085C42.7611 39.1253 42.7062 39.3213 42.7266 39.4955C42.7535 39.717 42.8958 39.8683 43.0828 39.8683L45.1256 39.4425L45.8176 38.0841C45.8808 37.9577 45.8291 37.8652 45.8125 37.8332L45.5693 37.4694L45.8674 36.7142L47.0177 37.1949L47.0688 37.0927C48.1604 34.8923 48.8038 32.1084 48.8779 29.2466L48.8811 29.1432L48.7758 29.1234ZM13.0333 38.395C13.0486 38.425 13.0582 38.4441 13.062 38.4512V38.4524L13.0639 38.4556C13.1067 38.5405 13.1099 38.6229 13.0722 38.6835C13.0454 38.7269 13.0065 38.7512 12.9611 38.7531L12.9018 38.7557L12.8596 38.7135C12.8322 38.6861 12.8079 38.6529 12.7881 38.6159L12.7869 38.6127L12.7856 38.6101L12.1434 37.4694L11.8638 36.974L11.6793 37.5121L11.3346 38.5156C11.3071 38.5942 11.3148 38.6816 11.3556 38.7544C11.3965 38.8272 11.4661 38.8795 11.5472 38.898C11.8089 38.9568 12.3419 39.078 12.6215 39.1432L12.7786 39.1795L12.8073 39.2038C12.8692 39.2561 12.9037 39.3627 12.8909 39.4642C12.8826 39.5319 12.8532 39.6002 12.8035 39.6111L12.7134 39.5951L10.8379 39.1534L10.2826 37.9743C10.2806 37.9705 10.2794 37.9679 10.2794 37.966C10.28 37.9635 10.2813 37.9603 10.2838 37.9552L10.5047 37.5504L10.5666 37.4362L10.5111 37.3187C10.423 37.133 10.3375 36.9248 10.2551 36.7231L10.2443 36.697L10.1804 36.5437L11.7808 35.8211C11.994 36.3101 12.4326 37.2134 13.0333 38.395ZM12.6796 38.8942C12.3885 38.8265 11.8465 38.7033 11.6033 38.6484C11.581 38.6433 11.5682 38.6203 11.5759 38.5986L11.9206 37.5951L12.5628 38.7352C12.596 38.7984 12.6356 38.8508 12.6796 38.8942ZM15.7316 17.0533C12.7313 20.1998 11.0812 24.323 11.0812 28.6791C11.0812 30.9606 11.528 33.1713 12.4096 35.2511L8.90817 36.8355C7.89892 34.4812 7.34227 31.9852 7.25354 29.4113C8.18682 29.2651 9.05627 28.7583 9.71315 27.9757C10.3451 27.223 10.7077 26.3044 10.7077 25.456C10.7077 23.7835 9.95445 22.4998 8.46962 21.638C9.46291 18.8931 11.0684 16.3364 13.1226 14.2285L15.7316 17.0533ZM17.535 14.5445C17.535 14.5445 17.5331 14.5458 17.5318 14.5471C17.5305 14.5477 17.5299 14.5484 17.5286 14.5496L16.5743 15.3208C16.5743 15.3208 16.5711 15.3233 16.5698 15.3246C16.566 15.3278 16.5621 15.331 16.5583 15.3342C16.1836 15.6578 15.8044 16.0051 15.4692 16.3364C15.4744 16.3434 15.4788 16.3498 15.4833 16.3562C15.4788 16.3498 15.4737 16.3428 15.4686 16.3364C15.4603 16.3454 15.452 16.353 15.4437 16.3613L14.2551 15.0648C14.2768 15.045 14.2998 15.0246 14.3228 15.0042C14.3508 14.9793 14.3796 14.9544 14.4083 14.9301C14.4734 14.8746 14.5423 14.8126 14.6132 14.7469H14.6138L14.6164 14.7437L14.619 14.7411L15.1405 14.2228L15.1603 14.2343L15.1635 14.2356L15.1667 14.2375L16.3004 14.8382L16.4466 14.9154L16.5768 14.8146L17.152 14.3683C17.2101 14.323 17.2682 14.2937 17.3256 14.2796C17.3543 14.2732 17.3805 14.2694 17.4041 14.2694C17.4399 14.2694 17.5222 14.2694 17.5688 14.4028C17.588 14.4603 17.5758 14.512 17.535 14.5445ZM17.814 14.3332C17.814 14.3294 17.812 14.3256 17.8108 14.3217C17.8031 14.2994 17.7942 14.2777 17.7839 14.2573C17.7788 14.2471 17.7737 14.2368 17.768 14.2266C17.7565 14.2068 17.7444 14.1883 17.731 14.1711C17.6971 14.1277 17.6563 14.0913 17.6078 14.0645C17.5886 14.0536 17.5682 14.0447 17.5465 14.037C17.5254 14.0294 17.5024 14.0236 17.4788 14.0198C17.4552 14.016 17.4303 14.0141 17.4041 14.0141C17.3614 14.0141 17.3154 14.0198 17.2669 14.0313C17.1673 14.0549 17.076 14.1041 16.9956 14.1666L16.4204 14.6128L15.286 14.0115L15.0996 13.9062L14.9618 14.0396L14.7045 14.2956L14.7862 13.8864L15.6525 13.0827H15.655L16.1134 13.2206L16.2366 13.2576L16.3393 13.181C16.5111 13.0533 16.7121 12.9186 16.9068 12.7884L16.9713 12.7444L17.0715 12.6773L18.0048 14.189L17.814 14.3332ZM38.2019 14.5426L37.8113 15.0456C34.9501 12.9391 31.5381 11.8264 27.9352 11.8264C24.5921 11.8264 21.3683 12.8005 18.6004 14.6454L16.58 11.3751C18.8577 9.87811 21.362 8.86184 24.0265 8.3537C24.5136 9.9062 25.9371 11.5321 27.9888 11.5321C30.0405 11.5321 31.7564 10.1373 32.0769 8.39903C35.0133 8.9959 37.7295 10.1979 40.1521 11.9732L39.5259 12.8382L39.0216 13.4874V13.4887L38.2019 14.5426ZM40.855 16.219C40.8396 16.2464 40.8167 16.27 40.7905 16.2853C40.7669 16.3007 40.7401 16.309 40.7145 16.309C40.6852 16.309 40.6571 16.2981 40.6366 16.279C40.05 15.6961 39.2533 15.0105 38.5722 14.4992H38.5715C38.5684 14.4967 38.5658 14.4947 38.5632 14.4928L39.2163 13.6527L39.6555 13.1025C39.6651 13.1101 39.6746 13.1172 39.6842 13.1248C39.7397 13.1682 39.7966 13.2129 39.8566 13.2602L39.9989 13.3757L40.5971 13.8615L40.6009 13.864L40.5958 13.873L40.5894 13.8921L40.1636 15.1018L40.1087 15.2576L40.2281 15.3712L40.7547 15.8749C40.8058 15.9234 40.8422 15.9764 40.8601 16.0294C40.8862 16.1034 40.8843 16.1653 40.855 16.219ZM40.4043 15.1867L40.8301 13.977C40.8888 13.8679 40.8556 13.7351 40.7579 13.663L40.4579 13.4191L40.8811 13.4587L41.8068 14.2036C41.8119 14.2094 41.8138 14.2126 41.8138 14.2126C41.8138 14.2139 41.8131 14.2164 41.8131 14.2164H41.8138L41.7378 14.6735L41.7161 14.8037L41.81 14.8969C41.9861 15.0705 42.2153 15.3087 42.44 15.5493L41.0726 16.7009L40.8888 16.5228C40.9673 16.4845 41.035 16.4213 41.0784 16.3415C41.1429 16.2253 41.1518 16.09 41.1014 15.9451C41.0675 15.8474 41.0063 15.7619 40.9309 15.6904L40.4043 15.1867ZM45.3318 37.3755L45.2826 37.5L45.3567 37.6111L45.5922 37.9628C45.5922 37.9628 45.5916 37.9667 45.5903 37.9686L44.9539 39.2178L43.0663 39.6111C43.0145 39.5983 42.9877 39.5268 42.9801 39.4655C42.9679 39.3615 43.0018 39.2561 43.0643 39.2038L43.0924 39.1802L43.2514 39.1432C43.5782 39.0666 44.1444 38.9389 44.3104 38.9012C44.3909 38.8827 44.4604 38.831 44.5013 38.7595C44.5421 38.6874 44.5504 38.6012 44.5243 38.522L44.1917 37.5147L44.0097 36.9638L43.7263 37.47L43.086 38.6133C43.0637 38.6542 43.0388 38.688 43.0126 38.7135L42.9705 38.7557L42.9099 38.7531C42.8658 38.7512 42.8262 38.7269 42.8013 38.6867C42.7624 38.6229 42.7643 38.5418 42.8077 38.4569L42.8103 38.4531V38.4512C42.8135 38.4454 42.8211 38.4307 42.832 38.409C43.1824 37.719 43.7806 36.5208 44.0353 35.8926L45.6299 36.6203L45.3318 37.3755ZM43.1933 38.8942C43.2367 38.8508 43.275 38.7984 43.3088 38.7391L43.9491 37.5951L44.2817 38.6025C44.2893 38.6242 44.2766 38.6471 44.2542 38.6523C44.0959 38.688 43.5227 38.8176 43.1933 38.8942ZM46.8945 36.8668L45.8636 36.4359L43.3912 35.2874C44.2817 33.4617 44.7905 31.0628 44.7905 28.6791C44.7905 24.5145 43.2839 20.547 40.5447 17.4893L43.4876 15.0316C45.2654 16.9984 46.4853 19.098 47.4275 21.8097C45.7059 23.0245 45.4856 24.337 45.4882 25.3488C45.4895 26.2674 45.8259 27.1918 46.4355 27.9508C47.0215 28.6798 47.794 29.1745 48.6194 29.3532C48.5345 32.0861 47.9235 34.7448 46.8945 36.8668Z" fill="#033520"/>
<path d="M28.078 3.88013C26.1584 3.88013 24.5977 5.44092 24.5977 7.36047C24.5977 9.28002 26.1584 10.8415 28.078 10.8415C29.9976 10.8415 31.5603 9.28066 31.5603 7.36047C31.5603 5.44028 29.9982 3.88013 28.078 3.88013Z" fill="#01AB4D"/>
<path d="M28.078 4.13547C29.8571 4.13547 31.3049 5.58264 31.3049 7.36047C31.3049 9.13831 29.8578 10.5861 28.078 10.5861C26.2982 10.5861 24.853 9.13895 24.853 7.36047C24.853 5.582 26.3002 4.13547 28.078 4.13547ZM28.078 3.88013C26.1584 3.88013 24.5977 5.44092 24.5977 7.36047C24.5977 9.28002 26.1584 10.8415 28.078 10.8415C29.9976 10.8415 31.5603 9.28066 31.5603 7.36047C31.5603 5.44028 29.9982 3.88013 28.078 3.88013Z" fill="#033520"/>
<path d="M11.0815 28.6789C11.0815 30.9604 11.5284 33.171 12.41 35.2508L8.90854 36.8352C7.89929 34.4809 7.34264 31.9849 7.25391 29.4111C8.18719 29.2649 9.05664 28.758 9.71351 27.9754C10.3455 27.2228 10.7081 26.3042 10.7081 25.4558C10.7081 23.7833 9.95481 22.4995 8.46998 21.6377C9.46328 18.8928 11.0688 16.3361 13.123 14.2283L15.732 17.053C12.7317 20.1995 11.0815 24.3227 11.0815 28.6789Z" fill="#01AB4D"/>
<path d="M40.1522 11.9733L39.526 12.8382L39.0217 13.4875V13.4887L38.202 14.5427L37.8113 15.0457C34.9502 12.9391 31.5382 11.8264 27.9353 11.8264C24.5922 11.8264 21.3684 12.8006 18.6005 14.6455L16.5801 11.3751C18.8578 9.87817 21.362 8.8619 24.0266 8.35376C24.5136 9.90625 25.9372 11.5322 27.9889 11.5322C30.0406 11.5322 31.7565 10.1373 32.0769 8.39908C35.0134 8.99595 37.7296 10.198 40.1522 11.9733Z" fill="#01AB4D"/>
<path d="M17.5351 14.5444C17.5351 14.5444 17.5332 14.5457 17.5319 14.5469C17.5307 14.5476 17.53 14.5482 17.5287 14.5495L16.5744 15.3206C16.5744 15.3206 16.5712 15.3232 16.5699 15.3245C16.5661 15.3277 16.5623 15.3309 16.5584 15.334C16.1837 15.6577 15.8045 16.005 15.4694 16.3363C15.4611 16.3452 15.4528 16.3529 15.4445 16.3612L14.2559 15.0647C14.2776 15.0449 14.3005 15.0244 14.3235 15.004C14.3516 14.9791 14.3803 14.9542 14.4091 14.93C14.4742 14.8744 14.5431 14.8125 14.614 14.7468H14.6146L14.6172 14.7436L14.6197 14.741L15.1413 14.2227L15.1611 14.2341L15.1642 14.2354L15.1674 14.2373L16.3012 14.838L16.4474 14.9153L16.5776 14.8144L17.1527 14.3682C17.2108 14.3229 17.2689 14.2935 17.3264 14.2795C17.3551 14.2731 17.3813 14.2693 17.4049 14.2693C17.4406 14.2693 17.523 14.2693 17.5696 14.4027C17.5887 14.4601 17.5766 14.5118 17.5358 14.5444H17.5351Z" fill="#01AB4D"/>
<path d="M15.4841 16.3571C15.4794 16.3504 15.4741 16.3431 15.4688 16.3364C15.4741 16.3438 15.4787 16.3504 15.4834 16.3571H15.4841Z" fill="#01AB4D"/>
<path d="M15.4697 16.3364C15.4751 16.3431 15.4804 16.3504 15.4851 16.3571C15.4804 16.3504 15.4757 16.3438 15.4704 16.3364H15.4697Z" fill="#033520"/>
<path d="M40.8562 16.219C40.8409 16.2465 40.8179 16.2701 40.7917 16.2854C40.7681 16.3007 40.7413 16.309 40.7157 16.309C40.6864 16.309 40.6583 16.2982 40.6379 16.279C40.0512 15.6962 39.2545 15.0106 38.5734 14.4993H38.5728C38.5696 14.4967 38.567 14.4948 38.5645 14.4929L39.2175 13.6528L39.6567 13.1025C39.6663 13.1102 39.6758 13.1172 39.6854 13.1249C39.741 13.1683 39.7978 13.213 39.8578 13.2602L40.0001 13.3758L40.5983 13.8615L40.6021 13.8641L40.597 13.873L40.5906 13.8922L40.1648 15.1019L40.1099 15.2576L40.2293 15.3713L40.7559 15.8749C40.807 15.9235 40.8434 15.9764 40.8613 16.0294C40.8875 16.1035 40.8855 16.1654 40.8562 16.219Z" fill="#01AB4D"/>
<path d="M42.44 15.5494L41.0727 16.701L40.8888 16.5229C40.9673 16.4846 41.035 16.4214 41.0784 16.3416C41.1429 16.2254 41.1518 16.0901 41.1014 15.9452C41.0676 15.8475 41.0063 15.762 40.9309 15.6905L40.4043 15.1868L40.8301 13.9771C40.8888 13.868 40.8556 13.7352 40.7579 13.663L40.4579 13.4192L40.8812 13.4588L41.8068 14.2037C41.8119 14.2095 41.8138 14.2127 41.8138 14.2127C41.8138 14.2139 41.8132 14.2165 41.8132 14.2165H41.8138L41.7378 14.6736L41.7161 14.8038L41.81 14.897C41.9862 15.0706 42.2153 15.3087 42.44 15.5494Z" fill="#01AB4D"/>
<path d="M18.0054 14.1886L17.8145 14.3329C17.8145 14.3291 17.8126 14.3253 17.8113 14.3214C17.8037 14.2991 17.7947 14.2774 17.7845 14.2569C17.7794 14.2467 17.7743 14.2365 17.7686 14.2263C17.7577 14.2072 17.745 14.188 17.7315 14.1708C17.6977 14.1274 17.6569 14.091 17.6083 14.0642C17.5892 14.0533 17.5688 14.0444 17.5471 14.0367C17.526 14.0291 17.503 14.0233 17.4794 14.0195C17.4558 14.0156 17.4309 14.0137 17.4047 14.0137C17.3619 14.0137 17.316 14.0195 17.2675 14.031C17.1679 14.0546 17.0766 14.1037 16.9962 14.1663L16.421 14.6125L15.2866 14.0112L15.1002 13.9058L14.9623 14.0393L14.7051 14.2952L14.7868 13.8861L15.653 13.0824H15.6556L16.1139 13.2202L16.2371 13.2573L16.3399 13.1807C16.5116 13.053 16.7127 12.9183 16.9074 12.7881L16.9719 12.744L17.0721 12.677L18.0054 14.1886Z" fill="#01AB4D"/>
<path d="M15.4697 16.3364C15.4751 16.3431 15.4804 16.3504 15.4851 16.3571C15.4804 16.3504 15.4757 16.3438 15.4704 16.3364H15.4697Z" fill="#033520"/>
<path d="M45.2825 37.5L45.3317 37.3755L45.6298 36.6203L44.0352 35.8926C43.7805 36.5207 43.1823 37.7189 42.8318 38.409C42.821 38.4307 42.8133 38.4454 42.8108 38.4511V38.453L42.8076 38.4569C42.7642 38.5418 42.7623 38.6229 42.8012 38.6867C42.8261 38.7269 42.8657 38.7512 42.9097 38.7531L42.9704 38.7556L43.0125 38.7135C43.0387 38.688 43.0636 38.6541 43.0859 38.6133L43.7262 37.47L44.0096 36.9638L44.1916 37.5147L44.5241 38.522C44.5503 38.6011 44.542 38.6873 44.5012 38.7595C44.4603 38.831 44.3907 38.8827 44.3103 38.9012C44.1443 38.9388 43.5781 39.0665 43.2512 39.1431L43.0923 39.1801L43.0642 39.2038C43.0017 39.2561 42.9678 39.3614 42.9799 39.4655C42.9876 39.5268 43.0144 39.5983 43.0661 39.611L44.9538 39.2178L45.5902 37.9685C45.5902 37.9685 45.5921 37.9647 45.5921 37.9634L45.3566 37.611L45.2825 37.5Z" fill="#01AB4D"/>
</svg>
